<svg xmlns="http://www.w3.org/2000/svg" viewBox="0 0 249.45 167.24"><title>LetItStandCoco</title><g id="Coco"><path d="M169.75,115.29a.49.49,0,0,1,.26-.41.75.75,0,0,1,.45,0,1,1,0,0,0,.62-.09,4.41,4.41,0,0,1,.47-1.45,2.25,2.25,0,0,0,.13-1.62.55.55,0,0,0,.29-.22.52.52,0,0,1,.28-.21,2.94,2.94,0,0,1-.24-1.56,3.13,3.13,0,0,1,.55-1.19,3.4,3.4,0,0,1-.25-.42,2.44,2.44,0,0,1-.13-.8,11,11,0,0,1,0-1.14,10.67,10.67,0,0,1,.15-1.17,2.68,2.68,0,0,1,.27-.83c-.28-1.43-.5-2.78-.66-4a14.31,14.31,0,0,0-.88-3.55,8,8,0,0,0-1-1.76,12,12,0,0,0-1.32-1.52,8.41,8.41,0,0,0-1.47-1.15,6.32,6.32,0,0,0-1.44-.64c-.08,0-.2,0-.38.09a.56.56,0,0,1-.53.06,1.44,1.44,0,0,1-.32-.26q-.19-.21-.27-.18a.86.86,0,0,0-.21.13,1.31,1.31,0,0,1-.28.17,1.06,1.06,0,0,1-.7,0,3.69,3.69,0,0,0-.44-.11,5.32,5.32,0,0,0-.93.24c-.33.11-.67.23-1,.37a10.71,10.71,0,0,0-1.23.55,8.16,8.16,0,0,0-1.28,1,2.78,2.78,0,0,1-.51.33,3.59,3.59,0,0,0-.46.26,1.1,1.1,0,0,0-.31.45,1.07,1.07,0,0,1-.31.46,1.56,1.56,0,0,1-.58.36,1.3,1.3,0,0,0-.54.34,1.67,1.67,0,0,0-.47.57,5.08,5.08,0,0,1-.39.65,2.57,2.57,0,0,1-.55.5.55.55,0,0,0-.22.62,3,3,0,0,0-1.28,1.15c-.27.47-.54.94-.81,1.43q-1.22,2.13-2.26,4.11a26.69,26.69,0,0,0-1.84,4.47.58.58,0,0,0,0,.34.4.4,0,0,1,0,.3.36.36,0,0,1-.22.19.38.38,0,0,0-.23.19.49.49,0,0,0,0,.33.43.43,0,0,1,0,.32c-.08.2-.18.43-.31.69a3.8,3.8,0,0,0-.3.84,1.62,1.62,0,0,0,0,.6c0,.33,0,.5,0,.52l-.11,0a.4.4,0,0,0-.15,0c-.06,0-.07.06,0,.12l.11.27a.15.15,0,0,1-.06.2.35.35,0,0,0-.16.2,5.49,5.49,0,0,0-.33,1.28,2,2,0,0,1-.47,1.15,3.84,3.84,0,0,1,.11,1.17,6.78,6.78,0,0,1-.19,1,7.84,7.84,0,0,0-.21,1,3.71,3.71,0,0,0,0,1.1,2.33,2.33,0,0,0-.57,1.51c0,.43.08.87.1,1.31a.56.56,0,0,0,0,.36,1.38,1.38,0,0,1,.09.46,1.15,1.15,0,0,1-.19.28,1,1,0,0,0-.2.28,2.52,2.52,0,0,0,.06.55c0,.22.07.47.1.73a3,3,0,0,1,0,.84,1.75,1.75,0,0,1-.36.81.2.2,0,0,0,0,.11.51.51,0,0,0,.24.26q.18.09.21.18c0,.09,0,.26-.14.52a1.36,1.36,0,0,0-.19.64,5.91,5.91,0,0,1,.27,1.21,1.5,1.5,0,0,1-.2,1,1.35,1.35,0,0,1,.22.33,1,1,0,0,1,.06.67,1.66,1.66,0,0,0-.06.62,2.46,2.46,0,0,0,.16.65c.1.24,0,.42-.3.53a1.94,1.94,0,0,1,.22.44,3.49,3.49,0,0,1,.24,1.27,3.64,3.64,0,0,0,.26,1.31c0,.12.1.23.14.34a1.15,1.15,0,0,0,.23.35,1.77,1.77,0,0,0-.05,1,7.47,7.47,0,0,0,.39,1.23l.39,1a3.13,3.13,0,0,1,.19.8,3.47,3.47,0,0,0,.22.84,1.26,1.26,0,0,0,.52.57,1.57,1.57,0,0,1,.62.79,2.76,2.76,0,0,1,.08.27,1.31,1.31,0,0,0,.09.28,1.8,1.8,0,0,0,.34.51,7.66,7.66,0,0,0,.57.57l.62.58a4.54,4.54,0,0,0,.5.43,3.23,3.23,0,0,0,1.27.53,1.93,1.93,0,0,1,1.15.68,4.12,4.12,0,0,1,2.87.21l.24-.09a1.24,1.24,0,0,0,.45-.28,1.92,1.92,0,0,1,.43-.32.83.83,0,0,0,.58.23,1.94,1.94,0,0,0,.58-.12,4.3,4.3,0,0,0,.89-.51,3.83,3.83,0,0,1,.89-.5l1.37-.54a4.41,4.41,0,0,0,1.27-.73c.33-.29.69-.58,1.07-.86a4.69,4.69,0,0,1,.83-.43.7.7,0,0,0,.43-.74.9.9,0,0,0,.57,0,.85.85,0,0,0,.5-.56.82.82,0,0,1,.34-.5,1.14,1.14,0,0,1,.73,0c.33-.5.67-1,1-1.48a4.51,4.51,0,0,1,1.48-1.25,1.75,1.75,0,0,0,.1-.71.53.53,0,0,0,.37,0,.74.74,0,0,0,.35-.35q.15-.25.3-.48a3.53,3.53,0,0,1,.81-.7,1.13,1.13,0,0,0,.55-.91A.89.89,0,0,1,172,137a.59.59,0,0,1,.27,0,1,1,0,0,0,.47-.1.4.4,0,0,0,.17-.44,1.71,1.71,0,0,1,0-.51,8.89,8.89,0,0,0,1.08-1.15l.93-1.19c.3-.4.62-.79.94-1.2a7.35,7.35,0,0,1,1.12-1.11,1.38,1.38,0,0,1,.24-.81c.15-.24.31-.46.47-.68s.34-.43.52-.64a1.94,1.94,0,0,0,.39-.72.41.41,0,0,1,.34,0,.42.42,0,0,0,.35,0s.11-.24.17-.64a4.56,4.56,0,0,1,.15-.78.91.91,0,0,0,.43-.33l.28-.41.25-.41a1,1,0,0,1,.45-.34l.17-.06a.53.53,0,0,0,.1-.38,3.43,3.43,0,0,0-.08-.5.31.31,0,0,0,.23,0,.7.7,0,0,0,.43-.46.71.71,0,0,1,.43-.45,1.35,1.35,0,0,1,.36-.09.76.76,0,0,0,.27,0,.57.57,0,0,0,.19-.13c.17,0,.26.07.27.1a.33.33,0,0,1-.09.32c-.09.12-.13.2-.11.23a.9.9,0,0,0,0,.28,1.52,1.52,0,0,1,0,.33l-.13.05a.65.65,0,0,0-.37.28.72.72,0,0,1-.34.26.56.56,0,0,1-.26,0c-.22.15-.26.39-.13.72l.08.22-.36.15a1.23,1.23,0,0,0-.66.44.94.94,0,0,0-.14.47,1.93,1.93,0,0,0,0,.47.63.63,0,0,1-.06.43c-.06,0-.09,0-.11,0a.17.17,0,0,0-.11,0,.48.48,0,0,0-.38.51.47.47,0,0,1-.34.49c-.11,0-.18.06-.22,0a2.4,2.4,0,0,1-.42.81,1.24,1.24,0,0,0-.29.81.4.4,0,0,1-.15,0,.4.4,0,0,0-.15,0,.74.74,0,0,0-.39.31.81.81,0,0,1-.43.33.14.14,0,0,1-.09,0l-.13,0a2.11,2.11,0,0,1-.28.81,1.61,1.61,0,0,0-.2.93l-.16.06a1.24,1.24,0,0,0-.57.43,6.24,6.24,0,0,0-.37.58c-.11.2-.22.38-.32.54a.94.94,0,0,1-.45.36.64.64,0,0,1-.45,0,.82.82,0,0,0-.26.64.83.83,0,0,1-.26.65,2.75,2.75,0,0,0-.85.77c-.22.31-.44.63-.65.95a9.25,9.25,0,0,1-.66.91,2.13,2.13,0,0,1-.87.63.82.82,0,0,1-.28.05,1.25,1.25,0,0,0-.32.08.17.17,0,0,0-.12.17,2.51,2.51,0,0,0,0,.27,1.45,1.45,0,0,1,0,.29.17.17,0,0,1-.1.2l-1.79,1.71a11.21,11.21,0,0,0-1.56,1.82l-.2.08a1.13,1.13,0,0,1-.73,0,.88.88,0,0,0-.41.5,2.18,2.18,0,0,1-.46.72l-.28.11c-.21.09-.29.15-.23.19s0,.09-.06.13-.09,0-.12-.06-.07-.07-.15,0a.47.47,0,0,0-.26.29.8.8,0,0,1-.29.34,3,3,0,0,1-.85.49,6.45,6.45,0,0,0-.95.47,9,9,0,0,0-.77.57,2.88,2.88,0,0,1-.74.44,1.49,1.49,0,0,1-.44.1,4.46,4.46,0,0,0-.51.07,5.05,5.05,0,0,0-.71.33q-.35.18-.78.36a2.26,2.26,0,0,1-.93.18h-1a2.07,2.07,0,0,0-.64.15,2.38,2.38,0,0,1-.6.13,3.11,3.11,0,0,1-1.53-.12,2.09,2.09,0,0,0-1.44,0,.72.72,0,0,0-.73-.44,2.21,2.21,0,0,1-.85,0c-.06,0-.12-.08-.17-.22s-.12-.18-.2-.15a.27.27,0,0,0-.15.11,6.17,6.17,0,0,1-.84-.78,1.26,1.26,0,0,0-1-.46.5.5,0,0,1,0-.14.44.44,0,0,0,0-.14,2,2,0,0,0-.82-1,3.45,3.45,0,0,1-1-.81,12.58,12.58,0,0,1-.82-1.38c-.27-.52-.5-1-.7-1.53s-.38-1.09-.61-1.92-.45-1.68-.65-2.53a20.12,20.12,0,0,1-.39-2.3c-.07-.67,0-1.08.11-1.2a.77.77,0,0,1-.37-.47l-.08-.18a1,1,0,0,0,.06-.64.48.48,0,0,1,.26-.57.17.17,0,0,1,0-.11.25.25,0,0,0,0-.12.47.47,0,0,0-.22-.28.39.39,0,0,1-.22-.27c0,.06,0,0,0-.17s0-.39,0-.63,0-.49.09-.73a.71.71,0,0,1,.21-.47c0-.06,0-.09-.06-.1a.2.2,0,0,1-.07-.11.93.93,0,0,1-.08-.56.93.93,0,0,0-.08-.56.5.5,0,0,0-.07-.13.31.31,0,0,1-.08-.12.65.65,0,0,0,.35-.42,2,2,0,0,0,.09-.71,5.55,5.55,0,0,0,0-.72,3,3,0,0,0-.11-.53l-.13-.31a2.06,2.06,0,0,0,.25-.92,1,1,0,0,1,.41-.83l-.11-.27a2.4,2.4,0,0,1-.14-.54c0-.15.09-.26.31-.35l.08,0a.27.27,0,0,1-.15-.15,1.22,1.22,0,0,1-.07-.17,1.57,1.57,0,0,1,0-1,7,7,0,0,0,.21-1.24.66.66,0,0,0,0-.27.54.54,0,0,1,0-.33.48.48,0,0,1,.18-.3.53.53,0,0,0,.18-.3.84.84,0,0,0-.06-.39.84.84,0,0,1-.06-.39,1.22,1.22,0,0,1,.06-.33,1,1,0,0,0,0-.38,5.3,5.3,0,0,1,.35-1.83,12.89,12.89,0,0,0,.51-2,1.37,1.37,0,0,0,0-.45,1.71,1.71,0,0,1,0-.45,2.94,2.94,0,0,0,.1-.4c0-.23.12-.47.2-.75a5.78,5.78,0,0,1,.26-.74.75.75,0,0,1,.31-.41,1.28,1.28,0,0,0,0-.51,1.71,1.71,0,0,1,0-.55.39.39,0,0,0,.25-.25l.09-.35c0-.12.07-.22.11-.32a.38.38,0,0,1,.26-.23l.2-.08a1.07,1.07,0,0,1,0-.53,3.13,3.13,0,0,1,.19-.54c.07-.16.14-.33.2-.49a.62.62,0,0,0,0-.42,1,1,0,0,0-.08-.15.2.2,0,0,1-.07-.1s0,0,.06-.08h.11l.11,0q.16-.06.18-.66a2.25,2.25,0,0,1,.13-.8,4.06,4.06,0,0,1,.89-1.28,2,2,0,0,0,.57-1.51,1.7,1.7,0,0,0,.8-.8c.23-.42.5-.92.8-1.5s.65-1.23,1.07-1.94a14.54,14.54,0,0,1,1.61-2.23,2.11,2.11,0,0,1,.59-.44,2.69,2.69,0,0,0,.63-.46c.25-.23.52-.51.81-.83s.64-.66,1-1a10.58,10.58,0,0,1,1.41-1.07,11.3,11.3,0,0,1,1.94-1,11.56,11.56,0,0,1,3.21-.76,10.31,10.31,0,0,1,3.92.59,6.33,6.33,0,0,1,1.69.65,9.62,9.62,0,0,1,1.57,1.16,1.12,1.12,0,0,0,.36.14.32.32,0,0,1,.2.21,1.05,1.05,0,0,1,.05.19.61.61,0,0,0,0,.18.49.49,0,0,0,.39.29,1,1,0,0,1,.43.16,7.11,7.11,0,0,1,.84,1.35,5.93,5.93,0,0,0,1.09,1.55,2,2,0,0,0,.11,1,5.4,5.4,0,0,0,.26.55,3.33,3.33,0,0,1,.26.54,1.48,1.48,0,0,1,.08.79,1.4,1.4,0,0,0,.07.75,1.75,1.75,0,0,0,.13.28,1.66,1.66,0,0,1,.15.33.6.6,0,0,1,0,.6,1,1,0,0,0-.06.72,1.39,1.39,0,0,0,.14.26,1.5,1.5,0,0,1,.2.38,1.62,1.62,0,0,1-.06.78,5.5,5.5,0,0,1-.32,1,2.9,2.9,0,0,1,.17,1.14c0,.34-.05.68-.08,1s-.07.69-.08,1a3.79,3.79,0,0,0,.12,1.13l-.12,0c-.22.09-.31.22-.29.4a.48.48,0,0,1-.21.47,1,1,0,0,0,.08.15.38.38,0,0,1,.09.14,1.57,1.57,0,0,1,.12.55,2.59,2.59,0,0,0,.06.52,1.64,1.64,0,0,0-.22.73q0,.39,0,.81a1.92,1.92,0,0,1-.13.74.83.83,0,0,1-.52.5l0,.08a1.22,1.22,0,0,1,.12.6,2,2,0,0,1-.09.48c-.05.15-.09.32-.13.49a1.23,1.23,0,0,0,0,.54,3,3,0,0,1-.71.43,2.14,2.14,0,0,1-1.53.06A2.1,2.1,0,0,1,169.75,115.29Zm17.07,2.22c.11-.05.17,0,.2,0a.53.53,0,0,1,0,.29q-.06.21-.15.45a2.55,2.55,0,0,1-.2.44l-.13.26a.85.85,0,0,1-.43.37.46.46,0,0,0-.31.33,3.38,3.38,0,0,0-.4,1,1.71,1.71,0,0,1-.58.89.72.72,0,0,0-.2.37,1.75,1.75,0,0,0-.05.4,2.28,2.28,0,0,1-.06.39.39.39,0,0,1-.25.25,1.21,1.21,0,0,1-.5.09,2,2,0,0,0-.51,0,3.94,3.94,0,0,0,0-.91.64.64,0,0,1,.48-.68h.09a.23.23,0,0,0,.13,0,4.14,4.14,0,0,1,0-.48,3.59,3.59,0,0,1,.47-.81,1.3,1.3,0,0,1,.15-.16.42.42,0,0,0,.1-.14c-.05-.15,0-.27.23-.37a1.73,1.73,0,0,0,.48-.32.71.71,0,0,0,.08-.39,1,1,0,0,1,0-.38,1.45,1.45,0,0,1,.7-.35.65.65,0,0,0,.53-.54Z" style="fill:#231f20"/><path d="M202.79,111.84a.35.35,0,0,1,.1-.09c.09,0,.15,0,.19,0a.14.14,0,0,0,.15,0,.24.24,0,0,0,.12-.15l.07,1a1.63,1.63,0,0,1-.19.28l-.23.3c-.1.14-.22.33-.37.58s-.32.5-.49.76a5.85,5.85,0,0,1-.56.71,1.67,1.67,0,0,1-.53.42.12.12,0,0,1-.12,0,.08.08,0,0,0-.08,0,1.08,1.08,0,0,0-.11.35c-.05.23-.25.41-.6.55l-.32.13s0,0,0,0a.1.1,0,0,1,0,.06.27.27,0,0,1-.13.39.37.37,0,0,0-.22.37,1.3,1.3,0,0,1-.53.08.25.25,0,0,0-.19,0,.69.69,0,0,0-.35.26l-.22.35-.19.33a.66.66,0,0,1-.34.26l-.2.08a3.14,3.14,0,0,1-.81.53,1.2,1.2,0,0,0-.66.57c-.3.18-.56.34-.76.48s-.41.26-.58.38l-.57.38-.76.48c-.14.26-.17.44-.09.52a.63.63,0,0,1,.1.45,5.37,5.37,0,0,0-.31,1q-.15.64-.27,1.26c-.09.42-.18.81-.28,1.17a1.45,1.45,0,0,1-.41.75,1.53,1.53,0,0,1-.28.4c-.16.18-.22.33-.17.45a.53.53,0,0,0,.08.15.53.53,0,0,1,.08.15l-.12.05-.2.08a.68.68,0,0,0-.4.44,1.3,1.3,0,0,0-.1.63,11,11,0,0,0-1.5,1.39,4.09,4.09,0,0,1-1.56,1.1,2.65,2.65,0,0,1-1,.19,2.19,2.19,0,0,0-.65,0,3.09,3.09,0,0,1-1.53-.59.37.37,0,0,1-.2-.28.44.44,0,0,0-.16-.3,2.73,2.73,0,0,1-.75-.66,4.43,4.43,0,0,1-.42-.89,8.63,8.63,0,0,1-.34-1.1,13.7,13.7,0,0,1-.27-1.39,14.45,14.45,0,0,1-.13-1.45,7.79,7.79,0,0,1,.07-1.31,13.36,13.36,0,0,1,.29-1.49,13.05,13.05,0,0,1,.71-2,10.84,10.84,0,0,1,1.28-2.13,6.6,6.6,0,0,1,2-1.72l0,.05c0,.12.11.16.19.13a1,1,0,0,0,.25-.13l.3-.14a3.79,3.79,0,0,1,.91-.22,2.93,2.93,0,0,1,1,0,2.65,2.65,0,0,1,.91.37,1.53,1.53,0,0,1,.64.8c-.33,0-.65,0-1,0a2.84,2.84,0,0,0-.92.18,2,2,0,0,0-.63.41,4.81,4.81,0,0,1,1.53,0,2.76,2.76,0,0,1,1,.42,2.71,2.71,0,0,1,.76.75c.22.31.45.64.71,1,.43-.17,1-.43,1.63-.77a20.27,20.27,0,0,0,2.11-1.3,26.59,26.59,0,0,0,2.28-1.77,18.7,18.7,0,0,0,2.14-2.21,2.57,2.57,0,0,1,.67-.73,2.37,2.37,0,0,0,.68-.68,1.71,1.71,0,0,1-.05-.18.26.26,0,0,1,0-.22,1.54,1.54,0,0,1,.34-.26A1.2,1.2,0,0,0,202.79,111.84ZM191.7,124.36a4,4,0,0,0,0-1.29l-.18-1.28a2,2,0,0,0-.87-.56l-.9-.29a2.59,2.59,0,0,1-.83-.47l-.8-.61a4.69,4.69,0,0,0-.79-.47.92.92,0,0,0-.76,0,1.08,1.08,0,0,0-.52.43,3.61,3.61,0,0,0-.35.71c-.1.26-.2.52-.29.79a2.24,2.24,0,0,1-.34.62,3.51,3.51,0,0,0-.51,1.54,6.54,6.54,0,0,1-.33,1.52,4.88,4.88,0,0,0,0,1.52,7.82,7.82,0,0,0,.46,1.7q.21.52.48,1.05a3.65,3.65,0,0,0,.65.88,2.13,2.13,0,0,0,.85.51,1.52,1.52,0,0,0,1-.07,3.49,3.49,0,0,0,1.53-1,4,4,0,0,0,.55-.88.48.48,0,0,0,.06-.28.52.52,0,0,1,.07-.34,11,11,0,0,1,.63-.94c.23-.32.42-.59.58-.83a.72.72,0,0,0,0-.44.93.93,0,0,1,.06-.56.29.29,0,0,1,.21-.17c.12,0,.16-.07.14-.13l-.11-.26a.14.14,0,0,1,.08-.16A.42.42,0,0,0,191.7,124.36Z" style="fill:#231f20"/><path d="M221,105.12l.59.44a11.89,11.89,0,0,1-.69,2c-.31.7-.66,1.39-1,2s-.75,1.28-1.12,1.86a14.12,14.12,0,0,1-1,1.4A3.23,3.23,0,0,1,217,114a2.18,2.18,0,0,0-.62,1.09,3.77,3.77,0,0,1-.66.72,3.8,3.8,0,0,0-.7.9c-.35.52-.69,1-1,1.45s-.66.9-1,1.33a13.14,13.14,0,0,1-1.22,1.26c-.45.4-1,.81-1.53,1.24.06-.09,0-.08-.08,0s-.28.28-.52.49a9.64,9.64,0,0,1-.89.69,6,6,0,0,1-1.21.63,8.74,8.74,0,0,1-1.91.47,3.41,3.41,0,0,1-2-.31.24.24,0,0,1-.19-.18.26.26,0,0,0-.15-.2,3.05,3.05,0,0,1-1.37-1.32,13.38,13.38,0,0,1-.74-1.46,8.6,8.6,0,0,1-.35-1.23,2.57,2.57,0,0,1,.1-1.41l-.16-.4a.93.93,0,0,1,0-.77,1,1,0,0,0,0-.87.22.22,0,0,0-.07-.12.26.26,0,0,1,0-.09,3.44,3.44,0,0,0,.63-1.51q.14-.8.21-1.65a3.37,3.37,0,0,0,.53-1c.14-.38.28-.76.42-1.12a8.36,8.36,0,0,1,.44-1,1.34,1.34,0,0,1,.68-.63l.39-.12.43-.15a2.85,2.85,0,0,0,.5-.14l0-.17c-.05,0,.06.05.33.08a1.46,1.46,0,0,1,.61.19,3.19,3.19,0,0,0,.77,0,1.54,1.54,0,0,1,.8.13,4.64,4.64,0,0,1,1,1.13,9.53,9.53,0,0,1,1,1.87c.29.75.33,1.28.13,1.6a.49.49,0,0,1-.36.25.78.78,0,0,0-.48.39,1,1,0,0,1-.57-.29,1.6,1.6,0,0,1-.27-.46,4.42,4.42,0,0,1-.16-.51,3.5,3.5,0,0,0-.17-.55c-.05-.15-.14-.2-.25-.16a1.35,1.35,0,0,1-.05-.49.72.72,0,0,0,0-.35,3.22,3.22,0,0,0-.27-.51c-.13-.19-.25-.38-.39-.57a1.34,1.34,0,0,0-.44-.42.51.51,0,0,0-.48,0,2.53,2.53,0,0,0-1.33,1.14,8.92,8.92,0,0,0-.72,1.62c-.13.39-.27.89-.45,1.51a15,15,0,0,0-.41,2.06,13,13,0,0,0-.09,2.35,7.74,7.74,0,0,0,.53,2.41,3.44,3.44,0,0,0,.92,1.39,2.44,2.44,0,0,0,1.68.41.32.32,0,0,1,.34,0q.14.12.54,0l.64-.3a5.38,5.38,0,0,1,.64-.31,3.51,3.51,0,0,0,.89-.52c.28-.23.55-.47.8-.71s.51-.48.77-.7a2.83,2.83,0,0,1,.81-.49,1.1,1.1,0,0,0,.63-.45,3.93,3.93,0,0,1,.34-.6,13.93,13.93,0,0,0,1.69-1.8c.39-.53.8-1.16,1.23-1.88a.5.5,0,0,1,.25-.2.47.47,0,0,1,.17,0,.35.35,0,0,0,.18,0q-.12,0,0-.06a1.68,1.68,0,0,0,.32-.33,2.33,2.33,0,0,0,.32-.54,1.21,1.21,0,0,0,.07-.69,5,5,0,0,1,.7-.82l.64-.61a4.78,4.78,0,0,0,.54-.65,2.81,2.81,0,0,0,.35-.86,2.85,2.85,0,0,1,.26-.42,1.93,1.93,0,0,0,.23-.35,1.3,1.3,0,0,0,.09-.42,1.76,1.76,0,0,1,.15-.5.87.87,0,0,1,.23-.32.91.91,0,0,0,.24-.37,2.05,2.05,0,0,0,.07-.31,1.13,1.13,0,0,1,.06-.31l.4-.16.47-1.42Z" style="fill:#231f20"/><path d="M237.88,98.44a.27.27,0,0,1,.11-.09q.12-.06.18,0a.16.16,0,0,0,.15,0,.25.25,0,0,0,.13-.15l.07,1a2,2,0,0,1-.2.28,3.41,3.41,0,0,1-.23.3c-.1.14-.22.34-.37.58s-.31.51-.49.76a5.85,5.85,0,0,1-.56.71,1.42,1.42,0,0,1-.53.42.1.1,0,0,1-.12,0,.08.08,0,0,0-.08,0,1.08,1.08,0,0,0-.11.36.85.85,0,0,1-.6.54l-.32.13a.1.1,0,0,0,.05.06.09.09,0,0,1,0,.06.26.26,0,0,1-.13.38.37.37,0,0,0-.22.37,1.13,1.13,0,0,1-.53.08.28.28,0,0,0-.18,0,.68.68,0,0,0-.36.27l-.22.34-.19.33a.64.64,0,0,1-.34.27l-.2.08a3.15,3.15,0,0,1-.81.52,1.2,1.2,0,0,0-.66.57l-.76.48-.57.38-.57.38-.77.48c-.14.26-.17.44-.09.53a.56.56,0,0,1,.1.44,5.6,5.6,0,0,0-.31,1c-.09.43-.18.86-.27,1.27s-.18.8-.28,1.17a1.62,1.62,0,0,1-.4.75,1.67,1.67,0,0,1-.29.39c-.16.19-.22.34-.17.46a1,1,0,0,0,.08.15.56.56,0,0,1,.09.14l-.13,0-.2.08a.7.7,0,0,0-.4.44,1.34,1.34,0,0,0-.1.64,11,11,0,0,0-1.5,1.38,4,4,0,0,1-1.56,1.11,2.61,2.61,0,0,1-1,.18,2.63,2.63,0,0,0-.65,0,3,3,0,0,1-1.53-.58.38.38,0,0,1-.2-.29.44.44,0,0,0-.16-.29,2.9,2.9,0,0,1-.75-.66,5.07,5.07,0,0,1-.42-.89,8.83,8.83,0,0,1-.34-1.11,13.7,13.7,0,0,1-.27-1.39c-.07-.49-.11-1-.13-1.44a7.86,7.86,0,0,1,.07-1.32,11.65,11.65,0,0,1,.3-1.48,13,13,0,0,1,.7-2,10.5,10.5,0,0,1,1.28-2.12,6.4,6.4,0,0,1,2-1.72v0c0,.12.11.16.19.13l.26-.12a1.57,1.57,0,0,1,.29-.14,3.91,3.91,0,0,1,.91-.23,2.92,2.92,0,0,1,1,0,2.86,2.86,0,0,1,.91.37,1.61,1.61,0,0,1,.64.8c-.33,0-.65.05-1,.05a2.61,2.61,0,0,0-.92.19,2,2,0,0,0-.63.4,5.2,5.2,0,0,1,1.54,0,3,3,0,0,1,1,.42,2.75,2.75,0,0,1,.76.76c.22.31.45.64.71,1a16.57,16.57,0,0,0,1.63-.77,20.06,20.06,0,0,0,2.11-1.29,25.12,25.12,0,0,0,2.28-1.77,18.05,18.05,0,0,0,2.14-2.22,2.5,2.5,0,0,1,.67-.72,2.67,2.67,0,0,0,.68-.68s0-.1,0-.19a.26.26,0,0,1,0-.22,1.54,1.54,0,0,1,.34-.26A1.15,1.15,0,0,0,237.88,98.44ZM226.79,111a4,4,0,0,0,0-1.29c-.07-.49-.13-.91-.17-1.27a1.9,1.9,0,0,0-.87-.56l-.91-.29a2.79,2.79,0,0,1-.83-.47c-.27-.22-.54-.43-.8-.62a4.26,4.26,0,0,0-.79-.46.9.9,0,0,0-.75,0,1.07,1.07,0,0,0-.53.44,4.16,4.16,0,0,0-.35.7c-.1.27-.19.53-.29.79a2.1,2.1,0,0,1-.34.62,3.55,3.55,0,0,0-.51,1.54,5.65,5.65,0,0,1-.33,1.52,5.2,5.2,0,0,0,0,1.52,7.53,7.53,0,0,0,.46,1.7,10,10,0,0,0,.48,1,3.65,3.65,0,0,0,.65.88,2.22,2.22,0,0,0,.85.52,1.58,1.58,0,0,0,1-.08,3.48,3.48,0,0,0,1.53-1,4,4,0,0,0,.55-.89s.06-.14.06-.28a.61.61,0,0,1,.07-.34c.19-.31.4-.63.63-.94s.43-.59.58-.82a.75.75,0,0,0,0-.45,1,1,0,0,1,.06-.56.28.28,0,0,1,.21-.16c.12,0,.16-.07.14-.13l-.11-.27c0-.06,0-.11.08-.16A.37.37,0,0,0,226.79,111Z" style="fill:#231f20"/></g><g id="Let_It_Stand" data-name="Let It Stand"><path d="M23.58,78.54a20.59,20.59,0,0,1,3.33-.09c2.34.09,14.49.81,16.83.36,1.62,1.62,1.26,5.13,1.44,8-8.28-.09-19.17-.09-26.64-.27-1.26-.09-2.25.09-3.24-.63a3,3,0,0,0-1.17-.63c-.63-14.94-.54-30.77-.54-44.45,0-6.57-.36-10.71.36-16.2.36-1.89,1.89-1.89,3.51-1.8,1.35,0,3.06,0,3.42,1.62.45,2.7-1.17,19.53-1,27.72.27,8.82.63,17.63,1.35,26.45A5.15,5.15,0,0,0,23.58,78.54ZM36.18,30.4c-.36,6.12-1.26,11-1.26,16.92,1.44.63,6.48-.27,6.3,1.89-.18.9.72,3.33-.45,3.87-.54.36-1.62-.09-2.34-.09a24.6,24.6,0,0,0-3.6.45c.36,4.14-.09,9.17.09,13.67a19.61,19.61,0,0,0,5.67.45c1.08,0,4.86-.54,5.49.81.18.54-.27,1.53-.27,2.16a5.85,5.85,0,0,1-.18,2.16c-.36,1.35-2.34.81-3.42.91-2.43.09-5.13.17-7.65.17a31,31,0,0,1-7.65-.27,10.08,10.08,0,0,1,.27-4.31,37,37,0,0,0,.09-5.5c.09-3.41.36-6.92.45-10.43.36-7,.54-14.13.72-21.24V27.34c0-.72-.27-2.79.72-3.06a15.16,15.16,0,0,1,4.5-.27c4.5,0,9.36-.72,13.86.09-.27,1.17-.09,3.69-.36,5.31C43.11,29.59,40.23,29.86,36.18,30.4Z" style="fill:#231f20"/><path d="M49.25,26.17c0-1.89-.54-4.59.18-5.85,3.51-.36,7-.27,10.53-.36,1.71,0,3.42-.09,5.22-.18,1.08,0,3-.63,3.87.45a14.87,14.87,0,0,1-.36,5.67c-2.43.18-5.22,0-7.65.18-.36,2.34.09,4.86,0,7.2s.36,4.59.18,7a112.39,112.39,0,0,0,.18,15.57c.36,10.07.54,20.15,1.17,30.23-1.44.54-5.67.72-7.2.09-.81-9.81-.54-19.88-.72-29.78-.09-4.86-.27-9.81-.27-14.67.09-5.13.72-10.35.36-15.57A54,54,0,0,1,49.25,26.17Z" style="fill:#231f20"/><path d="M89.23,42.2c-.07,2.16,0,4.25,0,6.33-.07,4.25-.51,8.57-.51,12.82s.44,8.71.22,13a42.61,42.61,0,0,0-.07,5.18c.07,1.87.36,4-.15,5.83-1.08.79-3.45.87-5.11.94-1.44-1.15-.94-4-.79-5.76.5-4.83.5-9.8.57-14.69.15-7.63-.28-15.27-.57-22.9,0-1.22,0-2.45.07-3.67,0-.87-.58-3.6.43-3.89a10.67,10.67,0,0,1,3.39-.36c1.15,0,2.88-.29,2.88,1.22C89.52,38.31,89.3,40.25,89.23,42.2Z" style="fill:#231f20"/><path d="M91.49,26.35c-1.35.18-3.51.72-4.59-.45.54-1.62-.63-3.42.18-4.95.18-.36.09-.72.81-1a5.46,5.46,0,0,1,2.7-.27c2.16.09,4.23.45,6.3.36,2.79,0,5.58-.27,8.28-.18a22.82,22.82,0,0,0,6.12-.54c1.53-.36.9,3.51.9,4.23.18,2-.27,2.79-2.34,3.06-1.71.27-3.51.27-5.4.54-.27,4.95-.18,9.9-.45,14.85s-.18,10.08-.36,15.12S103.19,67,103.46,72c.18,2.51-.18,5-.18,7.55-.18,2.34,0,4.59-.18,6.93-2.43.36-4.86-.18-7.11-.27-.54-4.23.63-8.19.27-12.33a63.86,63.86,0,0,1,.09-7.2l.18-3.6c0-.26,0-2.42.18-2.24-.09.09-.18-7.56-.18-8.28.09-3-.09-5.94-.27-8.91-.27-5.67-.09-11.52,0-17.28C96.26,26.35,93.11,26.26,91.49,26.35Z" style="fill:#231f20"/><path d="M127.85,68c.72.89,3.24,3.23,4.59,3.5,3.15.46,5.94-1.34,4.32-5.58-2-4.94-8-7.28-11.79-10.61-4.77-4.23-6.93-11.07-4.5-16.83,1.08-2.61,4.68-5.76,7.74-6.66,3.33-.9,8.55,0,11.61,1.53,1.26.63,5,2.79,3.24,4.5-1.62,1.53-4.32,4.59-6.39,2.16-1.89-2.25-4.41-3.24-7.29-1.71-3.15,1.71-3.06,5.58-1.35,8.1,1.53,2.25,4.14,4.14,6.39,5.76,3.15,2.25,6.12,3.87,8,6.93a15.73,15.73,0,0,1,1.62,2.61,11.18,11.18,0,0,1,1.35,4.76,10.85,10.85,0,0,1-1.35,5.94,11.22,11.22,0,0,1-4.86,4.5c-9.27,3.69-15.48-2.61-17.82-6.11a.36.36,0,0,0,.09-.19.09.09,0,0,1-.09.09C122.81,69.36,127.13,67,127.85,68Zm18,12.32c.27,0,.54.18.72.18s.27.36.27.81c.09,1.35.18,2.7.18,4,0,.9-.18,1.17-.54,1.17h-1.8c-.36-.09-11.7-.54-14-.72-1.44-.09-6.93-.09-8.19-.09a2.28,2.28,0,0,0-1.08.18,3.28,3.28,0,0,1-1.26-.18c-.18,0-.36-.45-.36-1,.09-1.26,0-2.61,0-3.87,0-.54.09-.81.36-1a1.34,1.34,0,0,1,.54-.09l5.58.18h17.19A21,21,0,0,1,145.85,80.34Zm3.42,3.51c-.09-.09.09-1,.09-1.08,0-1.17-.09-2.25-.09-3.33.18-2.34.27-4.59.27-7,.18-4.86.36-9.81.54-14.75.45-10.35.18-20.88-.18-31.14-2.16-.09-26.82.18-28.8.27-.09-1.08.18-2.16.18-3.15,0-.72-.72-2.25.18-2.52,1.71-.54,26.37-.09,28.26-.09,5.49,0,10.44.18,15.93,0a23.66,23.66,0,0,1,.72,5.31c-1,.81-2.07.45-3.33.45-1.89-.09-3.69,0-5.58,0-1,1.89-.54,4.5-.45,6.66,0,2.52-.09,5.13-.09,7.74-.09,5.31-.45,10.62-.54,15.84,0,4.85-.09,9.72,0,14.57.09,2.43.27,5,.27,7.47,0,1.26-.09,2.34,0,3.6.09.9.63,2.25.09,3h.09l-.54.54c-.45.27-1.71,0-2.25,0h-2.25a16.07,16.07,0,0,1-2.07-.18c-.09-.18-.81-2.16-.09-2.07C149.54,83.85,149.45,83.85,149.27,83.85Z" style="fill:#231f20"/><path d="M180.85,79.06a1.87,1.87,0,0,1-.59,1.36c-1.17-.13-3.25.26-4.16-.32-.46-1.63-2.41-11-2.54-12a32.79,32.79,0,0,0-7.21,0A32,32,0,0,0,165,73.66c-.32,1-.52,2.08-.78,3.12-.26,1.24-.19,2.73-1,3.64a13.14,13.14,0,0,1-4.22-.19c-.39-4,1.75-8.32,2.6-12.22,1.1-5.53,2.14-11.05,3.18-16.51.85-4,1.69-8,2.67-11.9a38.51,38.51,0,0,1,1.17-4.55c.58-1.95,2.79-.71,4.29-.84.91,1.3,1.56,9.62,1.75,11,.39,3.32.92,6.5,1.56,9.82.65,3.64,1.37,7.21,2.21,10.85.59,2.41,1,4.81,1.56,7.22A36.29,36.29,0,0,1,180.85,79.06Zm-8.13-15.8c-.07-1.23-2.15-14-2.73-13.84,0,.06-.07.06-.07.13-.06.39-1.82,9.1-2.53,13.78C169.08,63.59,170.9,63.13,172.72,63.26Z" style="fill:#231f20"/><path d="M199.17,79c-1.49-3.64-5.46-15.92-6.69-19.76-.72-2.6-1.24-5.85-2.73-8.12.19.32-.07.65-.07.91V54a27.22,27.22,0,0,1,0,3.38c-.06,2.4-.39,4.81-.52,7.15L188.84,72a39.15,39.15,0,0,0-.07,7.8c-.26.85-2.34.65-3,.72-.91.06-2.4.26-2.79-.85a5.12,5.12,0,0,0,.26-2.21c0-1.17.13-2.27.19-3.38.13-2.27.26-4.48.2-6.69-.07-4.62.26-9.3.32-13.91s.46-9.23.46-13.85V37c.06-.58,0-1.75.45-2.27,1-1,3.19-.65,4.42-.65.72.71.78,2,1.11,3l1.23,4c.85,2.67,1.5,5.53,2.6,8.19,1,2.28,1.76,4.68,2.73,7,.46,1.11.91,2.21,1.5,3.32a9.11,9.11,0,0,0,1.43,3.38,49.15,49.15,0,0,0,0-7.48,68.43,68.43,0,0,1,.39-7.47c.2-2.41.32-4.94.45-7.41.07-1.17.07-2.41.07-3.58s-.45-2.86,0-3.9c1.36.26,4-.06,5.26.46.85.32.85.84.79,1.69a27.61,27.61,0,0,0-.2,4.09c-.46,5.46-.59,10.92-.84,16.38-.33,5.66-.27,12.42-.72,18.07-.13,1.82.13,3.77-.13,5.66s-4.16,1.56-5.27.91C199.5,80,199.37,79.45,199.17,79Z" style="fill:#231f20"/><path d="M210.18,68.59c-.13-4,.26-7.86.07-11.76s.26-8,.13-12c-.07-1.95.19-3.77.13-5.66a16.79,16.79,0,0,1,.32-5.72,11.81,11.81,0,0,1,4.55-.58,47.59,47.59,0,0,1,5.33.39c2.41.26,5.92,1,7.35,3.18,1.69,2.6,1.69,6.11,1.88,9.1.2,3.77-.26,7.54-.26,11.31.07,3.58.26,7.28,0,10.86-.13,1.75.07,3.51-.45,5.2A13.24,13.24,0,0,1,226.76,77c-1.89,2.47-4.81,2.86-7.67,3.19-1.24.06-7.22.45-8.65.32-.65-2-.39-3.7-.39-5.52C210.05,72.88,210.25,70.74,210.18,68.59Zm5.14-4.22c-.07,3.7-.39,7.47-.2,11.24a18.36,18.36,0,0,0,6.24-.78c2.15-.45,2.67-2.14,3.06-4.16a38.5,38.5,0,0,0,.45-7.21c.07-2.47.26-12.74.46-15.34a23.75,23.75,0,0,0-.65-6.37c-1.11-3.64-5.79-3.58-8.91-3-.13,4.09-.26,8.77-.52,13.06S215.38,60.21,215.32,64.37Z" style="fill:#231f20"/></g></svg>